<svg xmlns="http://www.w3.org/2000/svg" viewBox="0 0 1439.71 357.62"><defs><style>.cls-1{fill:#98989a;}.cls-2{fill:#021d49;}.cls-3{fill:#c92b30;}.cls-4{fill:#fff;stroke:#98989a;stroke-miterlimit:10;stroke-width:5px;}</style></defs><g id="Capa_2" data-name="Capa 2"><g id="Capa_1-2" data-name="Capa 1"><path class="cls-1" d="M415.56,229.85a13.44,13.44,0,0,1-7.89-1.16l-69.84-36.76a15.36,15.36,0,0,0-6.5-1.59,14.84,14.84,0,0,0-6.23,1.56l-12.74,6.85a12.8,12.8,0,0,1-5.41,1.38,11.87,11.87,0,0,1-6.67-2.23l-38.94-28.18a13.61,13.61,0,0,0-7.76-2.47h-.12a14.89,14.89,0,0,0-8.06,2.83l-26,19.73a11.21,11.21,0,0,1-5.47,2.18,12.61,12.61,0,0,1-5.56-.74l-11.79-4.88a13.63,13.63,0,0,0-7.06-1,14.67,14.67,0,0,0-6.38,2.67l-31.91,24.44a11.94,11.94,0,0,1-4.82,2.09,11.13,11.13,0,0,1-5.94-.53l-39.53-13.29a13.14,13.14,0,0,0-4.91-.71,14.58,14.58,0,0,0-4.94,1.12L.19,241.72v-5.65l88.74-39.56a19.13,19.13,0,0,1,6.85-1.58,17.57,17.57,0,0,1,6.91,1l39.55,13.29a6.89,6.89,0,0,0,3.3.29,6.34,6.34,0,0,0,2.55-1.15L180,184a20.39,20.39,0,0,1,9-3.71,18.44,18.44,0,0,1,9.76,1.41l11.56,4.8a8.32,8.32,0,0,0,2.5.41,3.89,3.89,0,0,0,.59,0,6.57,6.57,0,0,0,2.85-1.12L242.26,166a19.34,19.34,0,0,1,11.41-3.91,18.8,18.8,0,0,1,10.82,3.53l38.85,28.11A6.71,6.71,0,0,0,307,195a7,7,0,0,0,3-.8l12.8-6.85a18.7,18.7,0,0,1,17.58.09l70,36.82a7.45,7.45,0,0,0,3.65.6C414.29,225.94,415.38,229.26,415.56,229.85Z"/><path class="cls-2" d="M69.13,347.46v10q-28.47,0-48.6-11.73T.4,317.44q0-16.54,20.13-28.28t48.6-11.74v10q-20.32,0-34.7,8.78T20,317.44q0,12.46,14.39,21.24T69.13,347.46Z"/><path class="cls-2" d="M180.79,347.46v10q-28.47,0-48.6-11.73t-20.13-28.29q0-16.54,20.13-28.28t48.6-11.74v10q-20.32,0-34.7,8.78T131.7,317.44q0,12.46,14.39,21.24T180.79,347.46Z"/><path class="cls-2" d="M239.74,277.42h19.64v80H239.74Z"/><path class="cls-2" d="M364,297.43l29.45-20H413.1v80H393.46v-65l-29.45,20-29.46-20v65H314.91v-80h19.64Z"/><path class="cls-2" d="M528.44,292.43v35h9.82v10h-9.82v20H508.81v-20H489.17v20H469.53v-20h-9.82v-10h9.82v-35q0-6.19,8.64-10.6T499,277.42q12.17,0,20.81,4.41T528.44,292.43Zm-39.27,0v35h19.64v-35c0-1.37-1-2.54-2.9-3.53a17,17,0,0,0-13.85,0C490.13,289.89,489.17,291.06,489.17,292.43Z"/><path class="cls-3" d="M539.42,251.67l-60.58-40.55-25.38,7.53C422.2,108.63,321,28,200.88,28A261.53,261.53,0,0,0,16.53,103.69a5.48,5.48,0,0,0-.59.59,1.39,1.39,0,0,1-.71.18,1.51,1.51,0,0,1-1.5-1.5,1.16,1.16,0,0,1,.09-.47,10.7,10.7,0,0,1,.8-.89s0,0,0,0A301.94,301.94,0,0,1,240.88,0c130.21,0,241.23,82.16,284,197.5A297.08,297.08,0,0,1,539.42,251.67Z"/><path class="cls-2" d="M449.26,219.88l-33.7,10C383.71,129.07,289.49,56,178.15,56A248.21,248.21,0,0,0,1.73,129.33c0,.06,0,.09-.08.09a.88.88,0,0,1-.65.27,1,1,0,0,1-1-1,.8.8,0,0,1,.09-.36v0a2.16,2.16,0,0,1,.35-.42A257.63,257.63,0,0,1,200.88,32.41C319,32.41,418.5,111.66,449.26,219.88Z"/><line class="cls-4" x1="609.06" y1="357.62" x2="609.06"/><path class="cls-2" d="M799.11,40.11a65.28,65.28,0,0,0-49.72-23.2c-37.79,0-66.07,30.28-66.07,67.62,0,43.75,36.46,66.51,66.29,66.51a68.55,68.55,0,0,0,49.5-22.31v12.81a74,74,0,0,1-49.06,18.34c-44.19,0-76.9-34.69-76.9-75.79,0-42.43,34-76,76.46-76a71.78,71.78,0,0,1,49.5,19.23Z"/><path class="cls-2" d="M831.15,67.29v54.36c0,6.41.22,15.92,5.75,22.54s13.7,7.3,17.89,7.3,12.38-.67,17.9-7.3,5.75-16.13,5.75-22.54V67.29h8.84v56.8c0,7.29-.67,16.79-6.85,24.74-6.85,8.84-17.68,11-25.64,11s-18.78-2.21-25.63-11c-6.19-8-6.85-17.45-6.85-24.74V67.29Z"/><path class="cls-2" d="M957.55,83.87A16.51,16.51,0,0,0,941.86,73.7c-10.17,0-15.25,7.74-15.25,14.37,0,8.84,7.07,11.71,15.91,15.24,9.06,3.54,17.46,6,23.2,13.26,3.76,4.64,4.64,9.5,4.64,14.59,0,20.55-15.47,28.72-29.39,28.72-15,0-27.4-8.84-31.16-23.86l8.62-2.65c3.1,11.93,12.6,18.12,22.54,18.12,11.49,0,20.11-8.18,20.11-19.89,0-10.17-6.41-13.92-20.11-19.45-9.06-3.75-15.69-6.63-19.66-11.93a18.92,18.92,0,0,1-4-11.71c0-13.7,10.38-23.2,24.08-23.2,10.61,0,19.45,4.86,23.65,14.58Z"/><path class="cls-2" d="M1002.4,75.69v81.76h-8.84V75.69h-9.94v-8.4h9.94V35h8.84V67.29h15.69v8.4Z"/><path class="cls-2" d="M1124.6,112.59c0,26.74-20.55,47.29-47.29,47.29S1030,139.33,1030,112.59s20.55-47.28,47.29-47.28S1124.6,85.86,1124.6,112.59Zm-9.28,0c0-21.87-16.35-38.89-38-38.89s-38,17-38,38.89,16.36,38.9,38,38.9S1115.32,134.47,1115.32,112.59Z"/><path class="cls-2" d="M1150.67,67.29h8.84V78.56c6.85-11.71,17.24-13.25,23.43-13.25,17.67,0,23.42,11.71,25.19,16.35,5.08-10.83,14.8-16.35,26.74-16.35,9.94,0,16.35,3.53,20.33,7.51,7.29,7.29,7.73,17.24,7.73,24.53v60.1h-8.84V97.35c0-6-.44-13.48-5.3-18.56-4-4.2-9.28-5.09-13.48-5.09-23.87,0-24.09,23.87-24.09,29.39v54.36h-8.84V99.56c0-5.75-.44-25.86-19.89-25.86-15.69,0-23,13.7-23,31.6v52.15h-8.84Z"/><path class="cls-2" d="M1298.28,113.48c0,23,16.8,38,35.8,38,14.59,0,25.64-8.62,31.38-20.55l7.51,4.42c-5.3,10.16-17.23,24.52-39.55,24.52-28.06,0-44.42-20.77-44.42-47.06,0-31.38,21.66-47.51,43.76-47.51,24.3,0,42.64,19.44,42.64,48.17Zm67.84-8.4c-2.21-17.9-15.46-31.38-33.36-31.38-18.34,0-31.38,13.92-33.81,31.38Z"/><path class="cls-2" d="M1401.48,67.29h8.84V79c3.31-7.74,10.16-13.7,19.88-13.7a21,21,0,0,1,9.51,2.21l-4.42,8c-.89-.66-2.66-1.77-6.63-1.77-18.12,0-18.34,24.09-18.34,35.36v48.39h-8.84Z"/><path class="cls-2" d="M748.28,220.68c-9.06-17.68-25-18.12-28.94-18.12-17.46,0-27.4,12.6-27.4,27.4,0,15.91,11,21.22,25.85,28.51,14.58,7.07,21.88,10.16,29.39,15.47,6.41,4.42,15.69,12.15,15.69,28.5,0,24.75-20.77,43.09-46,43.09-19,0-28.73-9.06-34.26-15.46a48.56,48.56,0,0,1-9.5-16.14l8.4-4a51.26,51.26,0,0,0,8,14.14c6.63,8.4,17.46,12.59,27.63,12.59,19.88,0,35.57-14.58,35.57-34,0-8-3.09-16.35-14.36-23.2-4.2-2.43-12.82-6.85-25-12.81-14.58-7.08-21.88-11-27-19.45a31.75,31.75,0,0,1-4.64-16.8c0-17,11.49-36.68,37.79-36.68,14.8,0,28.28,7.07,35.8,21Z"/><path class="cls-2" d="M794.24,299.13c0,23,16.8,38,35.8,38,14.59,0,25.64-8.62,31.38-20.55l7.52,4.42c-5.31,10.16-17.24,24.52-39.56,24.52-28.06,0-44.41-20.77-44.41-47.06,0-31.38,21.65-47.51,43.75-47.51,24.3,0,42.65,19.44,42.65,48.17Zm67.84-8.4c-2.21-17.9-15.46-31.38-33.36-31.38-18.34,0-31.38,13.92-33.81,31.38Z"/><path class="cls-2" d="M897.44,252.94h8.84v11.72c3.31-7.74,10.16-13.7,19.89-13.7a20.92,20.92,0,0,1,9.5,2.21l-4.42,8c-.89-.66-2.65-1.77-6.63-1.77-18.12,0-18.34,24.09-18.34,35.36V343.1h-8.84Z"/><path class="cls-2" d="M952.68,252.94l31.82,74.92,31.38-74.92h9.72l-41.1,95.69L943,252.94Z"/><path class="cls-2" d="M1039.75,222.89a8,8,0,1,1,8,8.18A7.83,7.83,0,0,1,1039.75,222.89Zm12.37,30.05V343.1h-8.84V252.94Z"/><path class="cls-2" d="M1156.2,274.16c-6-6.85-16.35-14.81-31.16-14.81-22.1,0-37.57,17-37.57,39.12,0,25.85,19.67,38.67,37.13,38.67,14.36,0,25.63-8.4,32.7-16.13v11.93a49.15,49.15,0,0,1-32.92,12.59c-27.18,0-46.19-20.11-46.19-46.84S1096.09,251,1125,251a47.36,47.36,0,0,1,31.16,11.49Z"/><path class="cls-2" d="M1185.14,299.13c0,23,16.8,38,35.8,38,14.58,0,25.63-8.62,31.38-20.55l7.51,4.42c-5.3,10.16-17.23,24.52-39.55,24.52-28.07,0-44.42-20.77-44.42-47.06,0-31.38,21.66-47.51,43.75-47.51,24.31,0,42.65,19.44,42.65,48.17Zm67.84-8.4c-2.21-17.9-15.47-31.38-33.37-31.38-18.34,0-31.37,13.92-33.8,31.38Z"/></g></g></svg>